# xmcd CD database file
#
# Track frame offsets:
#	150
#	1182
#	14725
#	36625
#	46632
#	61690
#	76707
#	96187
#	105877
#	128377
#	144262
#	161907
#	175992
#
# Disc length: 2742 seconds
#
# Revision: 0
# Processed by: cddbd v1.5.1PL0 Copyright (c) Steve Scherf et al.
# Submitted via: CDex 1.51
#
DISCID=920ab40d
DTITLE=Funny Hill - Live InNashville (Joes Village In)
DYEAR=1990
DGENRE=Country
TTITLE0=Intro By Mike Dunbar
TTITLE1=King of the Highway
TTITLE2=dust on your shelf
TTITLE3=on the road again
TTITLE4=Ballad of Robin Winter-Smith
TTITLE5=Evangeline
TTITLE6=Smokey Nights
TTITLE7=Children Go Where I Send Thee
TTITLE8=Little Swiss Texas
TTITLE9=I'm Just A Little Cowboy
TTITLE10=The Struggle Song
TTITLE11=Rollin' My Sweet Babys Arms
TTITLE12=Walkin' In Jerusalem
EXTD=YEAR: 1990
EXTT0=
EXTT1=
EXTT2=
EXTT3=
EXTT4=
EXTT5=
EXTT6=
EXTT7=
EXTT8=
EXTT9=
EXTT10=
EXTT11=
EXTT12=
PLAYORDER=
